<?xml version="1.0" encoding="utf-8"?>
<!-- Generator: Adobe Illustrator 18.0.0, SVG Export Plug-In . SVG Version: 6.00 Build 0)  -->
<!DOCTYPE svg PUBLIC "-//W3C//DTD SVG 1.1//EN" "http://www.w3.org/Graphics/SVG/1.1/DTD/svg11.dtd">
<svg version="1.1" id="Layer_1" xmlns="http://www.w3.org/2000/svg" xmlns:xlink="http://www.w3.org/1999/xlink" x="0px" y="0px"
	 viewBox="0 0 64 64" enable-background="new 0 0 64 64" xml:space="preserve">
<g>
	<g>
		<g>
			<path fill="#EA6363" d="M32,0c17.7,0,32,14.3,32,32S49.7,64,32,64S0,49.7,0,32S14.3,0,32,0z"/>
		</g>
	</g>
	<g>
		<g>
			<path fill="#F7AB3E" d="M45.1,48H18.9c-2.1,0-3.9-1.7-3.9-3.9V25.9c0-2.1,1.7-3.9,3.9-3.9h26.2c2.1,0,3.9,1.7,3.9,3.9v18.2
				C49,46.3,47.3,48,45.1,48z"/>
		</g>
	</g>
	<g>
		<g>
			<path fill="#F9C953" d="M45.1,52H18.9c-2.1,0-3.9-1.7-3.9-3.9V29.9c0-2.1,1.7-3.9,3.9-3.9h26.2c2.1,0,3.9,1.7,3.9,3.9v18.2
				C49,50.3,47.3,52,45.1,52z"/>
		</g>
	</g>
	<g>
		<g>
			<path fill="#DCE5EF" d="M44,22.5V20c0-6.6-5.4-12-12-12h0c-6.6,0-12,5.4-12,12v2.5c0,1.4,1.1,2.5,2.5,2.5h0
				c1.4,0,2.5-1.1,2.5-2.5V20c0-3.8,3.1-7,7-7h0c3.8,0,7,3.1,7,7v2.5c0,1.4,1.1,2.5,2.5,2.5h0C42.9,25,44,23.9,44,22.5z"/>
		</g>
	</g>
	<g>
		<g>
			<rect x="15" y="30" fill="#F7F254" width="34" height="3"/>
		</g>
	</g>
	<g>
		<g>
			<rect x="15" y="45" fill="#F7F254" width="34" height="3"/>
		</g>
	</g>
	<g>
		<g>
			<path fill="#BC7D00" d="M34.6,37.5c0-1.4-1.1-2.5-2.5-2.5c-1.4,0-2.5,1.1-2.5,2.5c0,0.8,0.4,1.5,1,2c0,0,0,0,0,0v3
				c0,0.8,0.7,1.5,1.5,1.5c0.8,0,1.5-0.7,1.5-1.5v-3c0,0,0,0,0,0C34.2,39,34.6,38.3,34.6,37.5z"/>
		</g>
	</g>
</g>
</svg>
